<svg id="icons" xmlns="http://www.w3.org/2000/svg" viewBox="0 0 64 64"><title>alarm-clock</title><g id="alarm-clock"><circle cx="48" cy="13" r="9" fill="#ffc81a"/><path d="M57,13A9,9,0,0,0,40.72,7.72,9,9,0,0,1,53.28,20.28,9,9,0,0,0,57,13Z" fill="#ffe02c"/><circle cx="16" cy="13" r="9" fill="#ffc81a"/><path d="M7,13A9,9,0,0,1,23.28,7.72,9,9,0,0,0,10.72,20.28,9,9,0,0,1,7,13Z" fill="#ffe02c"/><circle cx="9" cy="5" r="1" fill="#37464f"/><circle cx="55" cy="5" r="1" fill="#37464f"/><circle cx="16" cy="13" r="9" fill="none" stroke="#37464f" stroke-linecap="round" stroke-linejoin="round" stroke-width="2"/><line x1="20" y1="56" x2="17" y2="62" fill="none" stroke="#37464f" stroke-linecap="round" stroke-linejoin="round" stroke-width="2"/><line x1="44" y1="56" x2="47" y2="62" fill="none" stroke="#37464f" stroke-linecap="round" stroke-linejoin="round" stroke-width="2"/><circle cx="48" cy="13" r="9" fill="none" stroke="#37464f" stroke-linecap="round" stroke-linejoin="round" stroke-width="2"/><circle cx="32" cy="33" r="26" fill="#ff6d5e"/><circle cx="32" cy="33" r="23.5" fill="#e74b3c"/><circle cx="32" cy="33" r="21" fill="#fff"/><line x1="32" y1="2" x2="32" y2="7" fill="none" stroke="#37464f" stroke-linejoin="round" stroke-width="2"/><line x1="29" y1="2" x2="35" y2="2" fill="none" stroke="#37464f" stroke-linecap="round" stroke-linejoin="round" stroke-width="2"/><circle cx="32" cy="33" r="18" fill="#e9ebef"/><circle cx="32" cy="32" r="3" fill="#e74b3c"/><circle cx="32" cy="33" r="21" fill="none" stroke="#37464f" stroke-miterlimit="10" stroke-width="2"/><circle cx="32" cy="33" r="26" fill="none" stroke="#37464f" stroke-linecap="round" stroke-linejoin="round" stroke-width="2"/><line x1="32" y1="21" x2="32" y2="17" fill="none" stroke="#37464f" stroke-miterlimit="10" stroke-width="2"/><line x1="32" y1="49" x2="32" y2="45" fill="none" stroke="#37464f" stroke-miterlimit="10" stroke-width="2"/><line x1="44" y1="32" x2="48" y2="32" fill="none" stroke="#37464f" stroke-miterlimit="10" stroke-width="2"/><line x1="16" y1="32" x2="20" y2="32" fill="none" stroke="#37464f" stroke-miterlimit="10" stroke-width="2"/><polyline points="23 21 32 32 40 32" fill="none" stroke="#37464f" stroke-linecap="round" stroke-miterlimit="10" stroke-width="2"/></g></svg>